<svg width="21" height="17" viewBox="0 0 21 17" fill="none" xmlns="http://www.w3.org/2000/svg">
<g style="mix-blend-mode:exclusion">
<path d="M20.9944 1.45542C20.7037 4.44186 19.4439 11.7001 18.8043 15.0455C18.533 16.4632 17.9904 16.9357 17.4864 16.9925C16.3623 17.0869 15.5096 16.2742 14.4242 15.5748C12.7185 14.4785 11.7495 13.7981 10.1022 12.7395C8.18335 11.511 9.42375 10.8306 10.5285 9.73429C10.8192 9.45073 15.7808 5.04672 15.8778 4.64971C15.8912 4.58965 15.8894 4.5272 15.8725 4.46793C15.8556 4.40866 15.8241 4.35426 15.7808 4.30949C15.6646 4.21508 15.5096 4.25282 15.3739 4.27175C15.1995 4.30949 12.486 6.0674 7.19483 9.54525C6.41958 10.0556 5.72192 10.3202 5.10172 10.3013C4.40393 10.2824 3.08607 9.92322 2.09766 9.60192C0.876584 9.22395 -0.0730953 9.01598 0.00442971 8.35446C0.0431864 8.01423 0.527726 7.67401 1.43861 7.31486C7.098 4.91435 10.8579 3.32667 12.738 2.57062C18.1259 0.378079 19.2308 0 19.9672 0C20.1222 0 20.4905 0.0378532 20.723 0.226779C20.9169 0.378079 20.975 0.585932 20.9944 0.737118C20.975 0.850565 21.0138 1.19079 20.9944 1.45542Z" fill="white"/>
</g>
</svg>
